<svg width="20" height="20" fill="none" xmlns="http://www.w3.org/2000/svg"><g clip-path="url(#a)" fill="#000"><path d="M17.76 9.4H9.62v1.2h8.14l-2.01 2.1.86.9 2.97-3.1a.77.77 0 0 0 0-.9L16.6 6.5l-.86.9 2 2ZM8.37 19.4v-6.2a.66.66 0 0 0-.18-.41.61.61 0 0 0-.4-.19H3.6c0 .32.12.62.34.84.21.23.5.35.8.36h2.4v5H3.59a1.65 1.65 0 0 1-1.25-.45 1.79 1.79 0 0 1-.57-1.25v-14c-.01-.46.16-.91.46-1.25.3-.33.72-.53 1.17-.55h3.73v5h-2.3c-.3 0-.6.13-.8.36-.22.22-.34.52-.35.84H7.9a.61.61 0 0 0 .4-.19c.1-.1.17-.25.18-.41V.6a.86.86 0 0 0-.25-.4.8.8 0 0 0-.42-.2H3.59a2.76 2.76 0 0 0-2.06.8 3 3 0 0 0-.91 2.1v13.9a3 3 0 0 0 .74 2.18 2.77 2.77 0 0 0 2.04.92h4.4a.46.46 0 0 0 .4-.1.5.5 0 0 0 .17-.4Z"/></g><defs><clipPath id="a"><path fill="#fff" transform="translate(.62)" d="M0 0h19.15v20H0z"/></clipPath></defs></svg>